<?xml version="1.0" encoding="UTF-8" standalone="no"?>
<!-- Created with Inkscape (http://www.inkscape.org/) -->

<svg
   xmlns:dc="http://purl.org/dc/elements/1.1/"
   xmlns:cc="http://creativecommons.org/ns#"
   xmlns:rdf="http://www.w3.org/1999/02/22-rdf-syntax-ns#"
   xmlns:svg="http://www.w3.org/2000/svg"
   xmlns="http://www.w3.org/2000/svg"
   xmlns:sodipodi="http://sodipodi.sourceforge.net/DTD/sodipodi-0.dtd"
   xmlns:inkscape="http://www.inkscape.org/namespaces/inkscape"
   width="360"
   height="360"
   viewBox="0 0 95.249999 95.249999"
   version="1.1"
   id="svg5618"
   inkscape:version="0.92.5 (2060ec1f9f, 2020-04-08)"
   sodipodi:docname="profile_default.svg">
  <defs
     id="defs5612">
    <clipPath
       clipPathUnits="userSpaceOnUse"
       id="clipPath36">
      <path
         d="M 94.5884,383.5 H 150.365 V 282.128 H 94.5884 Z"
         id="path34"
         inkscape:connector-curvature="0" />
    </clipPath>
    <clipPath
       clipPathUnits="userSpaceOnUse"
       id="clipPath52">
      <path
         d="m 141.838,383.5 h 54.889 V 282.322 h -54.889 z"
         id="path50"
         inkscape:connector-curvature="0" />
    </clipPath>
    <clipPath
       clipPathUnits="userSpaceOnUse"
       id="clipPath76">
      <path
         d="m 127.64,391.246 h 37.449 V 335.25 H 127.64 Z"
         id="path74"
         inkscape:connector-curvature="0" />
    </clipPath>
    <clipPath
       clipPathUnits="userSpaceOnUse"
       id="clipPath104">
      <path
         d="m 143.308,444.5 h 36.833 v -33.333 h -36.833 z"
         id="path102"
         inkscape:connector-curvature="0" />
    </clipPath>
    <clipPath
       clipPathUnits="userSpaceOnUse"
       id="clipPath120">
      <path
         d="m 104.532,450.043 h 63.713 V 343.5 h -63.713 z"
         id="path118"
         inkscape:connector-curvature="0" />
    </clipPath>
  </defs>
  <sodipodi:namedview
     id="base"
     pagecolor="#ffffff"
     bordercolor="#666666"
     borderopacity="1.0"
     inkscape:pageopacity="0.0"
     inkscape:pageshadow="2"
     inkscape:zoom="0.9899495"
     inkscape:cx="155.72022"
     inkscape:cy="155.87127"
     inkscape:document-units="mm"
     inkscape:current-layer="g102"
     showgrid="false"
     units="px"
     inkscape:window-width="1920"
     inkscape:window-height="1019"
     inkscape:window-x="0"
     inkscape:window-y="0"
     inkscape:window-maximized="1" />
  <metadata
     id="metadata5615">
    <rdf:RDF>
      <cc:Work
         rdf:about="">
        <dc:format>image/svg+xml</dc:format>
        <dc:type
           rdf:resource="http://purl.org/dc/dcmitype/StillImage" />
        <dc:title />
      </cc:Work>
    </rdf:RDF>
  </metadata>
  <g
     inkscape:label="Camada 1"
     inkscape:groupmode="layer"
     id="layer1"
     transform="translate(0,-201.75)">
    <g
       transform="matrix(0.45357143,0,0,-0.45357143,-169.48771,433.24872)"
       id="g5042">
      <g
         id="g102"
         transform="translate(332.34019,38.890878)">
        <g
           style="fill:#1C3A75"
           id="g62"
           transform="translate(146.3335,261.5)">
          <path
             d="M 0,0 C 26.941,0 51.509,10.151 70.097,26.832 54.755,46.374 18.693,56.388 18.693,68.289 L 0,63.426 -18.693,68.289 c 0,-11.901 -36.062,-21.915 -51.404,-41.457 C -51.509,10.151 -26.941,0 0,0"
             style="fill:#1C3A75;fill-opacity:1;fill-rule:nonzero;stroke:none"
             id="path64"
             inkscape:connector-curvature="0" />
        </g>
        <g
           style="fill:#1C3A75;fill-opacity:1"
           id="g66"
           transform="translate(165.0894,329.7891)">
          <path
             d="m 0,0 c 0,-10.341 -8.383,-18.725 -18.725,-18.725 -10.341,0 -18.724,8.384 -18.724,18.725 v 42.731 c 0,10.342 8.383,18.726 18.724,18.726 C -8.383,61.457 0,53.073 0,42.731 Z"
             style="fill:#1C3A75;fill-opacity:1;fill-rule:nonzero;stroke:none"
             id="path68"
             inkscape:connector-curvature="0" />
        </g>
        <g
           style="fill:#1C3A75;fill-opacity:1"
           id="g70">
          <g
             style="fill:#1C3A75;fill-opacity:1"
             id="g72" />
          <g
             style="fill:#1C3A75;fill-opacity:1"
             id="g84">
            <g
               clip-path="url(#clipPath76)"
               id="g82"
               style="opacity:0.60000598;fill:#1C3A75;fill-opacity:1">
              <g
                 style="fill:#1C3A75;fill-opacity:1"
                 transform="translate(146.3647,391.2456)"
                 id="g80">
                <path
                   d="m 0,0 c -10.341,0 -18.725,-8.383 -18.725,-18.726 v -31.492 c 5.635,-3.689 11.992,-5.777 18.725,-5.777 6.733,0 13.09,2.088 18.725,5.777 v 31.492 C 18.725,-8.383 10.341,0 0,0"
                   style="fill:#1C3A75;fill-opacity:1;fill-rule:nonzero;stroke:none"
                   id="path78"
                   inkscape:connector-curvature="0" />
              </g>
            </g>
          </g>
        </g>
        <g
           style="fill:#1C3A75;fill-opacity:1"
           id="g86"
           transform="translate(112.2178,401.103)">
          <path
             d="m 0,0 c 6.964,-6.964 8.758,-16.462 4.007,-21.213 -4.751,-4.751 -14.249,-2.957 -21.213,4.007 -6.964,6.964 -8.758,16.462 -4.007,21.213 C -16.462,8.758 -6.964,6.964 0,0"
             style="fill:#1C3A75;fill-opacity:1;fill-rule:nonzero;stroke:none"
             id="path88"
             inkscape:connector-curvature="0" />
        </g>
        <g
           style="fill:#1C3A75;fill-opacity:1"
           id="g90"
           transform="translate(179.0117,401.103)">
          <path
             d="m 0,0 c -6.964,-6.964 -8.758,-16.462 -4.007,-21.213 4.751,-4.751 14.249,-2.957 21.213,4.007 6.964,6.964 8.758,16.462 4.007,21.213 C 16.462,8.758 6.964,6.964 0,0"
             style="fill:#1C3A75;fill-opacity:1;fill-rule:nonzero;stroke:none"
             id="path92"
             inkscape:connector-curvature="0" />
        </g>
        <g
           style="fill:#1C3A75;fill-opacity:1"
           id="g94"
           transform="translate(188.1982,398.1011)">
          <path
             d="m 0,0 c 0,-30.155 -18.729,-54.601 -41.833,-54.601 -23.104,0 -41.834,24.446 -41.834,54.601 0,30.155 5.977,54.601 41.834,54.601 C -5.976,54.601 0,30.155 0,0"
             style="fill:#1C3A75;fill-opacity:1;fill-rule:nonzero;stroke:none"
             id="path96"
             inkscape:connector-curvature="0" />
        </g>
        <g
           style="fill:#1C3A75;fill-opacity:1"
           id="g98">
          <g
             style="fill:#1C3A75;fill-opacity:1"
             id="g100" />
          <g
             style="fill:#1C3A75;fill-opacity:1"
             id="g112">
            <g
               clip-path="url(#clipPath104)"
               id="g110"
               style="opacity:0.5;fill:#1C3A75;fill-opacity:1">
              <g
                 style="fill:#1C3A75;fill-opacity:1"
                 transform="translate(143.3076,444.333)"
                 id="g108">
                <path
                   d="m 0,0 c 0,0 17.333,-21.667 36.833,-33.167 -6.5,9.334 -18.666,20 -18.666,20 L 7.5,0.167 Z"
                   style="fill:#1C3A75;fill-opacity:1;fill-rule:nonzero;stroke:none"
                   id="path106"
                   inkscape:connector-curvature="0" />
              </g>
            </g>
          </g>
        </g>
        <g
           style="fill:#1C3A75;fill-opacity:1"
           id="g114">
          <g
             style="fill:#1C3A75;fill-opacity:1"
             id="g116" />
          <g
             style="fill:#1C3A75;fill-opacity:1"
             id="g128">
            <g
               clip-path="url(#clipPath120)"
               id="g126"
               style="opacity:0.19999701;fill:#1C3A75;fill-opacity:1">
              <g
                 style="fill:#1C3A75;fill-opacity:1"
                 transform="translate(156.8647,349.5005)"
                 id="g124">
                <path
                   d="m 0,0 c -23.104,0 -41.833,24.445 -41.833,54.601 0,19.289 2.461,36.229 13.608,45.942 C -48.446,93.444 -52.333,72.878 -52.333,48.601 -52.333,18.445 -33.604,-6 -10.5,-6 -2.478,-6 5.014,-3.048 11.38,2.062 7.76,0.729 3.946,0 0,0"
                   style="fill:#1C3A75;fill-opacity:1;fill-rule:nonzero;stroke:none"
                   id="path122"
                   inkscape:connector-curvature="0" />
              </g>
            </g>
          </g>
        </g>
      </g>
    </g>
  </g>
</svg>
