<?xml version="1.0" encoding="UTF-8" standalone="no"?>
<!-- Created with Inkscape (http://www.inkscape.org/) -->

<svg
   xmlns:dc="http://purl.org/dc/elements/1.1/"
   xmlns:cc="http://creativecommons.org/ns#"
   xmlns:rdf="http://www.w3.org/1999/02/22-rdf-syntax-ns#"
   xmlns:svg="http://www.w3.org/2000/svg"
   xmlns="http://www.w3.org/2000/svg"
   xmlns:sodipodi="http://sodipodi.sourceforge.net/DTD/sodipodi-0.dtd"
   xmlns:inkscape="http://www.inkscape.org/namespaces/inkscape"
   width="360"
   height="360"
   viewBox="0 0 95.249999 95.249999"
   version="1.1"
   id="svg5618"
   inkscape:version="0.92.5 (2060ec1f9f, 2020-04-08)"
   sodipodi:docname="profile_06.svg">
  <defs
     id="defs5612">
    <clipPath
       clipPathUnits="userSpaceOnUse"
       id="clipPath36">
      <path
         d="M 94.5884,383.5 H 150.365 V 282.128 H 94.5884 Z"
         id="path34"
         inkscape:connector-curvature="0" />
    </clipPath>
    <clipPath
       clipPathUnits="userSpaceOnUse"
       id="clipPath52">
      <path
         d="m 141.838,383.5 h 54.889 V 282.322 h -54.889 z"
         id="path50"
         inkscape:connector-curvature="0" />
    </clipPath>
    <clipPath
       clipPathUnits="userSpaceOnUse"
       id="clipPath76">
      <path
         d="m 127.64,391.246 h 37.449 V 335.25 H 127.64 Z"
         id="path74"
         inkscape:connector-curvature="0" />
    </clipPath>
    <clipPath
       clipPathUnits="userSpaceOnUse"
       id="clipPath104">
      <path
         d="m 143.308,444.5 h 36.833 v -33.333 h -36.833 z"
         id="path102"
         inkscape:connector-curvature="0" />
    </clipPath>
    <clipPath
       clipPathUnits="userSpaceOnUse"
       id="clipPath120">
      <path
         d="m 104.532,450.043 h 63.713 V 343.5 h -63.713 z"
         id="path118"
         inkscape:connector-curvature="0" />
    </clipPath>
    <clipPath
       clipPathUnits="userSpaceOnUse"
       id="clipPath164">
      <path
         d="M 284.341,369.052 H 463.045 V 263.864 H 284.341 Z"
         id="path162"
         inkscape:connector-curvature="0" />
    </clipPath>
    <clipPath
       clipPathUnits="userSpaceOnUse"
       id="clipPath184">
      <path
         d="m 356.306,391.246 h 37.45 V 335.25 h -37.45 z"
         id="path182"
         inkscape:connector-curvature="0" />
    </clipPath>
    <clipPath
       clipPathUnits="userSpaceOnUse"
       id="clipPath204">
      <path
         d="m 333.198,439.75 h 54.39 V 343.5 h -54.39 z"
         id="path202"
         inkscape:connector-curvature="0" />
    </clipPath>
    <clipPath
       clipPathUnits="userSpaceOnUse"
       id="clipPath244">
      <path
         d="m 350.151,323.494 h 14.031 v -3.756 h -14.031 z"
         id="path242"
         inkscape:connector-curvature="0" />
    </clipPath>
    <clipPath
       clipPathUnits="userSpaceOnUse"
       id="clipPath260">
      <path
         d="m 386.475,323.482 h 14.185 v -3.744 h -14.185 z"
         id="path258"
         inkscape:connector-curvature="0" />
    </clipPath>
    <clipPath
       clipPathUnits="userSpaceOnUse"
       id="clipPath286">
      <path
         d="m 584.973,391.246 h 37.449 V 335.5 h -37.449 z"
         id="path284"
         inkscape:connector-curvature="0" />
    </clipPath>
    <clipPath
       clipPathUnits="userSpaceOnUse"
       id="clipPath290">
      <path
         d="m 603.697,391.246 c -10.34,0 -18.724,-8.384 -18.724,-18.726 v -27.778 c 6.947,-5.835 13.976,-9.242 18.724,-9.242 4.748,0 11.778,3.407 18.725,9.242 v 27.778 c 0,10.342 -8.383,18.726 -18.725,18.726"
         id="path288"
         inkscape:connector-curvature="0" />
    </clipPath>
    <linearGradient
       x1="0"
       y1="0"
       x2="1"
       y2="0"
       gradientUnits="userSpaceOnUse"
       gradientTransform="matrix(-2.4e-6,55.745117,55.745117,2.4e-6,603.69727,335.50049)"
       spreadMethod="pad"
       id="linearGradient298">
      <stop
         style="stop-opacity:1;stop-color:#ffb5ba"
         offset="0"
         id="stop292" />
      <stop
         style="stop-opacity:1;stop-color:#ffd9cf"
         offset="0.30075369"
         id="stop294" />
      <stop
         style="stop-opacity:1;stop-color:#ffd9cf"
         offset="1"
         id="stop296" />
    </linearGradient>
    <clipPath
       clipPathUnits="userSpaceOnUse"
       id="clipPath328">
      <path
         d="m 583.029,452.337 h 62.502 V 343.5 h -62.502 z"
         id="path326"
         inkscape:connector-curvature="0" />
    </clipPath>
    <clipPath
       clipPathUnits="userSpaceOnUse"
       id="clipPath352">
      <path
         d="m 557.166,391.808 h 27.059 v -89.64 h -27.059 z"
         id="path350"
         inkscape:connector-curvature="0" />
    </clipPath>
    <clipPath
       clipPathUnits="userSpaceOnUse"
       id="clipPath368">
      <path
         d="M 607.971,429.5 H 656.1 V 302.117 h -48.129 z"
         id="path366"
         inkscape:connector-curvature="0" />
    </clipPath>
    <clipPath
       clipPathUnits="userSpaceOnUse"
       id="clipPath392">
      <path
         d="m 127.64,158.246 h 37.449 V 102.25 H 127.64 Z"
         id="path390"
         inkscape:connector-curvature="0" />
    </clipPath>
    <clipPath
       clipPathUnits="userSpaceOnUse"
       id="clipPath428">
      <path
         d="m 111.057,174.833 h 31.25 v -31.25 h -31.25 z"
         id="path426"
         inkscape:connector-curvature="0" />
    </clipPath>
    <clipPath
       clipPathUnits="userSpaceOnUse"
       id="clipPath444">
      <path
         d="m 149.557,174.833 h 31.25 v -31.25 h -31.25 z"
         id="path442"
         inkscape:connector-curvature="0" />
    </clipPath>
    <clipPath
       clipPathUnits="userSpaceOnUse"
       id="clipPath464">
      <path
         d="m 103.808,215.835 h 84.971 V 110.5 h -84.971 z"
         id="path462"
         inkscape:connector-curvature="0" />
    </clipPath>
    <clipPath
       clipPathUnits="userSpaceOnUse"
       id="clipPath488">
      <path
         d="m 102.438,214.5 h 87.849 v -52.833 h -87.849 z"
         id="path486"
         inkscape:connector-curvature="0" />
    </clipPath>
    <clipPath
       clipPathUnits="userSpaceOnUse"
       id="clipPath504">
      <path
         d="m 127.64,96.789 c 0,-2.104 -2.229,-3.796 -5.908,-5.325 v 0 c 6.284,-3.305 15.701,-7.273 24.973,-7.463 v 0 c 0.253,-0.005 0.504,-0.008 0.755,-0.008 v 0 c 9.365,0 17.596,3.545 23.386,6.988 v 0 c -2.678,1.007 -4.745,2.075 -5.946,3.281 v 0 c 0.111,0.828 0.19,1.668 0.19,2.527 v 0 2.422 c -4.57,-2.625 -10.807,-5.218 -17.632,-5.218 v 0 c -0.183,0 -0.366,0.002 -0.548,0.006 v 0 c -6.782,0.138 -14.012,3.025 -19.27,5.676 v 0 z"
         id="path502"
         inkscape:connector-curvature="0" />
    </clipPath>
    <linearGradient
       x1="0"
       y1="0"
       x2="1"
       y2="0"
       gradientUnits="userSpaceOnUse"
       gradientTransform="matrix(-7e-7,15.681641,15.681641,7e-7,146.28857,83.993164)"
       spreadMethod="pad"
       id="linearGradient516">
      <stop
         style="stop-opacity:1;stop-color:#cff0f9"
         offset="0"
         id="stop510" />
      <stop
         style="stop-opacity:1;stop-color:#ffffff"
         offset="0.49476538"
         id="stop512" />
      <stop
         style="stop-opacity:1;stop-color:#ffffff"
         offset="1"
         id="stop514" />
    </linearGradient>
    <clipPath
       clipPathUnits="userSpaceOnUse"
       id="clipPath550">
      <path
         d="m 324.464,149.998 h 43.844 v -41.121 h -43.844 z"
         id="path548"
         inkscape:connector-curvature="0" />
    </clipPath>
    <clipPath
       clipPathUnits="userSpaceOnUse"
       id="clipPath566">
      <path
         d="m 376.31,150.998 h 49.782 V 108.877 H 376.31 Z"
         id="path564"
         inkscape:connector-curvature="0" />
    </clipPath>
    <clipPath
       clipPathUnits="userSpaceOnUse"
       id="clipPath590">
      <path
         d="m 356.308,158.246 h 37.448 V 102.25 h -37.448 z"
         id="path588"
         inkscape:connector-curvature="0" />
    </clipPath>
    <clipPath
       clipPathUnits="userSpaceOnUse"
       id="clipPath618">
      <path
         d="m 333.199,217.749 h 64.332 V 110.5 h -64.332 z"
         id="path616"
         inkscape:connector-curvature="0" />
    </clipPath>
    <clipPath
       clipPathUnits="userSpaceOnUse"
       id="clipPath650">
      <path
         d="m 318.5,81.833 h 46.392 V 49.25 H 318.5 Z"
         id="path648"
         inkscape:connector-curvature="0" />
    </clipPath>
    <clipPath
       clipPathUnits="userSpaceOnUse"
       id="clipPath666">
      <path
         d="m 385.499,80.835 h 46.392 V 49.25 h -46.392 z"
         id="path664"
         inkscape:connector-curvature="0" />
    </clipPath>
    <clipPath
       clipPathUnits="userSpaceOnUse"
       id="clipPath690">
      <path
         d="M 323.548,217 H 427.117 V 166.466 H 323.548 Z"
         id="path688"
         inkscape:connector-curvature="0" />
    </clipPath>
    <clipPath
       clipPathUnits="userSpaceOnUse"
       id="clipPath714">
      <path
         d="m 549.307,192.967 h 108.5 v -32.634 h -108.5 z"
         id="path712"
         inkscape:connector-curvature="0" />
    </clipPath>
    <clipPath
       clipPathUnits="userSpaceOnUse"
       id="clipPath750">
      <path
         d="m 584.973,158.246 h 37.449 V 103 h -37.449 z"
         id="path748"
         inkscape:connector-curvature="0" />
    </clipPath>
    <clipPath
       clipPathUnits="userSpaceOnUse"
       id="clipPath770">
      <path
         d="m 561.865,219.701 h 44.147 V 110.5 h -44.147 z"
         id="path768"
         inkscape:connector-curvature="0" />
    </clipPath>
    <clipPath
       clipPathUnits="userSpaceOnUse"
       id="clipPath790">
      <path
         d="m 556.861,219.021 h 94.028 V 165.5 h -94.028 z"
         id="path788"
         inkscape:connector-curvature="0" />
    </clipPath>
    <clipPath
       clipPathUnits="userSpaceOnUse"
       id="clipPath794">
      <path
         d="m 603.83,219.021 h 47.059 V 165.5 H 603.83 Z"
         id="path792"
         inkscape:connector-curvature="0" />
    </clipPath>
    <clipPath
       clipPathUnits="userSpaceOnUse"
       id="clipPath798">
      <path
         d="M 556.861,219.021 H 603.83 V 165.5 h -46.969 z"
         id="path796"
         inkscape:connector-curvature="0" />
    </clipPath>
    <clipPath
       clipPathUnits="userSpaceOnUse"
       id="clipPath838">
      <path
         d="m 584.08,78.703 c -7.239,2.378 -13.139,5.86 -17.437,8.966 v 0 c -0.833,-0.212 -1.684,-0.426 -2.547,-0.642 v 0 c 4.476,-3.407 10.99,-7.461 19.273,-10.195 v 0 c 5.243,-1.732 11.551,-3.01 18.754,-3.01 v 0 c 11.516,0 25.308,3.272 40.653,13.195 v 0 c -0.907,0.232 -1.798,0.462 -2.666,0.691 v 0 C 621.148,75.953 601.969,72.826 584.08,78.703"
         id="path836"
         inkscape:connector-curvature="0" />
    </clipPath>
    <linearGradient
       x1="0"
       y1="0"
       x2="1"
       y2="0"
       gradientUnits="userSpaceOnUse"
       gradientTransform="matrix(78.679687,0,0,-78.679687,564.0957,80.765625)"
       spreadMethod="pad"
       id="linearGradient850">
      <stop
         style="stop-opacity:1;stop-color:#cff0f9"
         offset="0"
         id="stop844" />
      <stop
         style="stop-opacity:1;stop-color:#ffffff"
         offset="0.49476538"
         id="stop846" />
      <stop
         style="stop-opacity:1;stop-color:#ffffff"
         offset="1"
         id="stop848" />
    </linearGradient>
    <clipPath
       clipPathUnits="userSpaceOnUse"
       id="clipPath860">
      <path
         d="m 533,77.828 c 6.945,-6.062 19.729,-15.536 37.063,-21.258 v 0 c 8.564,-2.829 18.874,-4.918 30.644,-4.918 v 0 c 20.43,0 45.254,6.307 72.955,25.965 v 0 c -0.719,0.309 -1.448,0.609 -2.184,0.903 v 0 C 628.988,48.803 593.563,50.938 570.776,58.441 v 0 c -16.456,5.416 -28.737,14.274 -35.694,20.224 v 0 C 534.38,78.393 533.687,78.114 533,77.828"
         id="path858"
         inkscape:connector-curvature="0" />
    </clipPath>
    <linearGradient
       x1="0"
       y1="0"
       x2="1"
       y2="0"
       gradientUnits="userSpaceOnUse"
       gradientTransform="matrix(140.66211,0,0,-140.66211,533,65.158203)"
       spreadMethod="pad"
       id="linearGradient872">
      <stop
         style="stop-opacity:1;stop-color:#cff0f9"
         offset="0"
         id="stop866" />
      <stop
         style="stop-opacity:1;stop-color:#ffffff"
         offset="0.49476538"
         id="stop868" />
      <stop
         style="stop-opacity:1;stop-color:#ffffff"
         offset="1"
         id="stop870" />
    </linearGradient>
    <clipPath
       clipPathUnits="userSpaceOnUse"
       id="clipPath882">
      <path
         d="m 552.814,41.625 c 3.694,-1.645 7.61,-3.181 11.734,-4.543 v 0 c 12.352,-4.077 25.014,-6.121 37.851,-6.121 v 0 c 7.304,0 14.667,0.662 22.054,1.988 v 0 c 10.763,1.932 21.598,5.298 32.447,10.041 v 0 c 4.006,2.363 7.848,4.976 11.49,7.832 v 0 C 625.358,27.917 589.505,30.969 565.262,38.953 v 0 c -10.906,3.592 -20.317,8.414 -28.021,13.242 v 0 c 4.849,-3.967 10.058,-7.51 15.573,-10.57"
         id="path880"
         inkscape:connector-curvature="0" />
    </clipPath>
    <linearGradient
       x1="0"
       y1="0"
       x2="1"
       y2="0"
       gradientUnits="userSpaceOnUse"
       gradientTransform="matrix(131.15039,0,0,-131.15039,537.24023,41.578125)"
       spreadMethod="pad"
       id="linearGradient894">
      <stop
         style="stop-opacity:1;stop-color:#cff0f9"
         offset="0"
         id="stop888" />
      <stop
         style="stop-opacity:1;stop-color:#ffffff"
         offset="0.49476538"
         id="stop890" />
      <stop
         style="stop-opacity:1;stop-color:#ffffff"
         offset="1"
         id="stop892" />
    </linearGradient>
  </defs>
  <sodipodi:namedview
     id="base"
     pagecolor="#ffffff"
     bordercolor="#666666"
     borderopacity="1.0"
     inkscape:pageopacity="0.0"
     inkscape:pageshadow="2"
     inkscape:zoom="0.49497475"
     inkscape:cx="608.5266"
     inkscape:cy="606.78201"
     inkscape:document-units="mm"
     inkscape:current-layer="g5479"
     showgrid="false"
     units="px"
     inkscape:window-width="1920"
     inkscape:window-height="1019"
     inkscape:window-x="0"
     inkscape:window-y="0"
     inkscape:window-maximized="1" />
  <metadata
     id="metadata5615">
    <rdf:RDF>
      <cc:Work
         rdf:about="">
        <dc:format>image/svg+xml</dc:format>
        <dc:type
           rdf:resource="http://purl.org/dc/dcmitype/StillImage" />
        <dc:title />
      </cc:Work>
    </rdf:RDF>
  </metadata>
  <g
     inkscape:label="Camada 1"
     inkscape:groupmode="layer"
     id="layer1"
     transform="translate(0,-201.75)">
    <g
       transform="matrix(0.45357143,0,0,-0.45357143,-226.18065,309.92679)"
       id="g5479">
      <g
         transform="translate(655.1035,160.333)"
         id="g704">
        <path
           inkscape:connector-curvature="0"
           id="path706"
           style="fill:#f66b98;fill-opacity:1;fill-rule:nonzero;stroke:none"
           d="m 0,0 c 1.746,5.325 2.703,11.008 2.703,16.917 0,29.962 -24.287,54.25 -54.25,54.25 -29.961,0 -54.25,-24.288 -54.25,-54.25 0,-5.909 0.959,-11.592 2.705,-16.917 z" />
      </g>
      <g
         id="g708">
        <g
           id="g710" />
        <g
           id="g722">
          <g
             style="opacity:0.69999701"
             id="g720"
             clip-path="url(#clipPath714)">
            <g
               id="g718"
               transform="translate(650.8887,180.167)">
              <path
                 inkscape:connector-curvature="0"
                 id="path716"
                 style="fill:#f66b98;fill-opacity:1;fill-rule:nonzero;stroke:none"
                 d="m 0,0 -94.027,-4.333 c 0,0 -2.342,2.392 -6.991,9.191 -0.365,-2.54 -0.564,-5.133 -0.564,-7.775 0,-5.909 0.959,-11.592 2.705,-16.917 H 4.215 C 5.961,-14.509 6.918,-8.826 6.918,-2.917 6.918,2.55 6.102,7.824 4.598,12.8 2.842,5.207 0,0 0,0" />
            </g>
          </g>
        </g>
      </g>
      <g
         transform="translate(569.6191,163.9375)"
         id="g724">
        <path
           inkscape:connector-curvature="0"
           id="path726"
           style="fill:#ffd9cf;fill-opacity:1;fill-rule:nonzero;stroke:none"
           d="m 0,0 c 6.104,-6.103 7.834,-14.263 3.869,-18.229 -3.965,-3.963 -12.125,-2.232 -18.226,3.871 -6.104,6.102 -7.834,14.262 -3.872,18.227 C -14.262,7.834 -6.102,6.103 0,0" />
      </g>
      <g
         transform="translate(637.7598,163.9375)"
         id="g728">
        <path
           inkscape:connector-curvature="0"
           id="path730"
           style="fill:#ffd9cf;fill-opacity:1;fill-rule:nonzero;stroke:none"
           d="m 0,0 c -6.102,-6.103 -7.834,-14.263 -3.869,-18.229 3.965,-3.963 12.125,-2.232 18.228,3.871 6.102,6.102 7.834,14.262 3.87,18.227 C 14.264,7.834 6.104,6.103 0,0" />
      </g>
      <g
         transform="translate(622.4219,96.7891)"
         id="g732">
        <path
           inkscape:connector-curvature="0"
           id="path734"
           style="fill:#ffd9cf;fill-opacity:1;fill-rule:nonzero;stroke:none"
           d="m 0,0 c 0,-10.342 -8.383,-18.725 -18.725,-18.725 -10.341,0 -18.724,8.383 -18.724,18.725 v 42.73 c 0,10.343 8.383,18.727 18.724,18.727 C -8.383,61.457 0,53.073 0,42.73 Z" />
      </g>
      <g
         transform="translate(622.4219,96.7891)"
         id="g736">
        <path
           inkscape:connector-curvature="0"
           id="path738"
           style="fill:#ffd9cf;fill-opacity:1;fill-rule:nonzero;stroke:none"
           d="M 0,0 -19.418,-5.092 -37.449,0 c 0,-9.521 -45.531,-10.585 -65.213,-26.418 19.162,-25.429 49.613,-41.871 83.906,-41.871 33.99,0 64.201,16.154 83.391,41.2 C 45.426,-10.613 0,-9.653 0,0" />
      </g>
      <g
         transform="translate(645.7441,142.125)"
         id="g740">
        <path
           inkscape:connector-curvature="0"
           id="path742"
           style="fill:#403365;fill-opacity:1;fill-rule:nonzero;stroke:none"
           d="M 0,0 C -1.967,0 -3.563,1.595 -3.563,3.563 -3.563,5.53 -1.967,7.125 0,7.125 1.969,7.125 3.563,5.53 3.563,3.563 3.563,1.595 1.969,0 0,0 m 0,10.875 c -4.039,0 -7.312,-3.273 -7.312,-7.312 0,-4.04 3.273,-7.313 7.312,-7.313 4.039,0 7.312,3.273 7.312,7.313 0,4.039 -3.273,7.312 -7.312,7.312" />
      </g>
      <g
         id="g744">
        <g
           id="g746" />
        <g
           id="g758">
          <g
             style="opacity:0.60000598"
             id="g756"
             clip-path="url(#clipPath750)">
            <g
               id="g754"
               transform="translate(603.6973,158.2461)">
              <path
                 inkscape:connector-curvature="0"
                 id="path752"
                 style="fill:#ffd9cf;fill-opacity:1;fill-rule:nonzero;stroke:none"
                 d="m 0,0 c -10.342,0 -18.725,-8.384 -18.725,-18.727 v -32.854 c 5.635,-2.57 11.993,-3.665 18.725,-3.665 6.734,0 13.09,1.094 18.725,3.665 v 32.854 C 18.725,-8.384 10.342,0 0,0" />
            </g>
          </g>
        </g>
      </g>
      <g
         transform="translate(645.5312,165.1016)"
         id="g760">
        <path
           inkscape:connector-curvature="0"
           id="path762"
           style="fill:#ffd9cf;fill-opacity:1;fill-rule:nonzero;stroke:none"
           d="m 0,0 c 0,-41.852 -18.73,-54.602 -41.834,-54.602 -23.104,0 -41.832,12.75 -41.832,54.602 0,30.154 5.975,54.6 41.832,54.6 C -5.977,54.6 0,30.154 0,0" />
      </g>
      <g
         id="g764">
        <g
           id="g766" />
        <g
           id="g778">
          <g
             style="opacity:0.19999701"
             id="g776"
             clip-path="url(#clipPath770)">
            <g
               id="g774"
               transform="translate(595.1113,219.1582)">
              <path
                 inkscape:connector-curvature="0"
                 id="path772"
                 style="fill:#ffd9cf;fill-opacity:1;fill-rule:nonzero;stroke:none"
                 d="m 0,0 c -28.238,-3.716 -33.246,-26.495 -33.246,-54.057 0,-41.851 18.728,-54.601 41.832,-54.601 0.777,0 1.547,0.017 2.314,0.047 -31.921,4.893 -34.537,50.288 -34.537,50.288 h 18 c -2,23.333 14.223,58.866 14.223,58.866 z" />
            </g>
          </g>
        </g>
      </g>
      <g
         transform="translate(639.0195,215.5)"
         id="g780">
        <path
           inkscape:connector-curvature="0"
           id="path782"
           style="fill:#f66b98;fill-opacity:1;fill-rule:nonzero;stroke:none"
           d="m 0,0 c -12.334,11.427 -27.686,10.483 -35.189,9.105 -7.502,1.378 -22.856,2.322 -35.19,-9.105 -17,-15.75 -10.75,-50 -10.75,-50 h 15.881 c 0.15,6.086 1.471,19.37 9.535,30.166 -6.808,-12.169 -6.943,-26.598 -6.861,-30.166 h 8.445 c 0,28.351 12.106,45.882 18.94,53.521 6.834,-7.639 18.939,-25.17 18.939,-53.521 h 12.842 c -0.164,4.791 -1.147,17.465 -6.805,29.833 C -3.572,-28.975 -0.789,-44.5 0.02,-50 H 10.75 C 10.75,-50 17,-15.75 0,0" />
      </g>
      <g
         id="g784">
        <g
           id="g786" />
        <g
           id="g826">
          <g
             style="opacity:0.69999701"
             id="g824"
             clip-path="url(#clipPath790)">
            <g
               id="g810">
              <g
                 id="g800" />
              <g
                 id="g808">
                <g
                   style="opacity:0.39999402"
                   id="g806"
                   clip-path="url(#clipPath794)">
                  <g
                     id="g804"
                     transform="translate(635.6113,165.5)">
                    <path
                       inkscape:connector-curvature="0"
                       id="path802"
                       style="fill:#f66b98;fill-opacity:1;fill-rule:nonzero;stroke:none"
                       d="M 0,0 C -0.164,4.791 -1.146,17.465 -6.805,29.833 -0.164,21.025 2.619,5.5 3.428,0 h 10.73 c 0,0 1.139,6.269 1.119,14.667 H 3.195 c -4.5,14.667 -16.5,23.667 -16.5,23.667 0,0 4.334,-10.5 2.834,-18.667 -4.668,14 -16.5,31.167 -21.31,33.854 6.834,-7.639 18.939,-25.17 18.939,-53.521 z" />
                  </g>
                </g>
              </g>
            </g>
            <g
               id="g822">
              <g
                 id="g812" />
              <g
                 id="g820">
                <g
                   style="opacity:0.39999402"
                   id="g818"
                   clip-path="url(#clipPath798)">
                  <g
                     id="g816"
                     transform="translate(557.8906,165.5)">
                    <path
                       inkscape:connector-curvature="0"
                       id="path814"
                       style="fill:#f66b98;fill-opacity:1;fill-rule:nonzero;stroke:none"
                       d="m 0,0 h 15.881 c 0.15,6.086 1.471,19.37 9.535,30.166 C 18.607,17.997 18.473,3.568 18.555,0 H 27 c 0,28.351 12.105,45.882 18.939,53.521 -7.976,-5.48 -20.855,-32.187 -20.855,-32.187 0,0 2.332,9.166 5.832,15.166 -12.832,-8.167 -20,-26.166 -20,-26.166 H -1.029 C -0.764,4.203 0,0 0,0" />
                  </g>
                </g>
              </g>
            </g>
          </g>
        </g>
      </g>
      <g
         transform="translate(687.0566,69.7002)"
         id="g828">
        <path
           inkscape:connector-curvature="0"
           id="path830"
           style="fill:#0369a6;fill-opacity:1;fill-rule:nonzero;stroke:none"
           d="m 0,0 c -18.379,15.765 -60.758,17.325 -64.381,25.887 0,0 -19.535,-15.92 -38.207,-0.467 -5.012,-8.038 -46.24,-9.892 -64.709,-24.749 19.162,-25.429 49.613,-41.871 83.906,-41.871 C -49.4,-41.2 -19.189,-25.046 0,0" />
      </g>
      <g
         id="g832">
        <g
           clip-path="url(#clipPath838)"
           id="g834">
          <g
             id="g840">
            <g
               id="g842">
              <path
                 inkscape:connector-curvature="0"
                 id="path852"
                 style="fill:url(#linearGradient850);stroke:none"
                 d="m 584.08,78.703 c -7.239,2.378 -13.139,5.86 -17.437,8.966 v 0 c -0.833,-0.212 -1.684,-0.426 -2.547,-0.642 v 0 c 4.476,-3.407 10.99,-7.461 19.273,-10.195 v 0 c 5.243,-1.732 11.551,-3.01 18.754,-3.01 v 0 c 11.516,0 25.308,3.272 40.653,13.195 v 0 c -0.907,0.232 -1.798,0.462 -2.666,0.691 v 0 C 621.148,75.953 601.969,72.826 584.08,78.703" />
            </g>
          </g>
        </g>
      </g>
      <g
         id="g854">
        <g
           clip-path="url(#clipPath860)"
           id="g856">
          <g
             id="g862">
            <g
               id="g864">
              <path
                 inkscape:connector-curvature="0"
                 id="path874"
                 style="fill:url(#linearGradient872);stroke:none"
                 d="m 533,77.828 c 6.945,-6.062 19.729,-15.536 37.063,-21.258 v 0 c 8.564,-2.829 18.874,-4.918 30.644,-4.918 v 0 c 20.43,0 45.254,6.307 72.955,25.965 v 0 c -0.719,0.309 -1.448,0.609 -2.184,0.903 v 0 C 628.988,48.803 593.563,50.938 570.776,58.441 v 0 c -16.456,5.416 -28.737,14.274 -35.694,20.224 v 0 C 534.38,78.393 533.687,78.114 533,77.828" />
            </g>
          </g>
        </g>
      </g>
      <g
         id="g876">
        <g
           clip-path="url(#clipPath882)"
           id="g878">
          <g
             id="g884">
            <g
               id="g886">
              <path
                 inkscape:connector-curvature="0"
                 id="path896"
                 style="fill:url(#linearGradient894);stroke:none"
                 d="m 552.814,41.625 c 3.694,-1.645 7.61,-3.181 11.734,-4.543 v 0 c 12.352,-4.077 25.014,-6.121 37.851,-6.121 v 0 c 7.304,0 14.667,0.662 22.054,1.988 v 0 c 10.763,1.932 21.598,5.298 32.447,10.041 v 0 c 4.006,2.363 7.848,4.976 11.49,7.832 v 0 C 625.358,27.917 589.505,30.969 565.262,38.953 v 0 c -10.906,3.592 -20.317,8.414 -28.021,13.242 v 0 c 4.849,-3.967 10.058,-7.51 15.573,-10.57" />
            </g>
          </g>
        </g>
      </g>
    </g>
  </g>
</svg>
