<?xml version="1.0" encoding="UTF-8" standalone="no"?>
<!-- Created with Inkscape (http://www.inkscape.org/) -->

<svg
   xmlns:dc="http://purl.org/dc/elements/1.1/"
   xmlns:cc="http://creativecommons.org/ns#"
   xmlns:rdf="http://www.w3.org/1999/02/22-rdf-syntax-ns#"
   xmlns:svg="http://www.w3.org/2000/svg"
   xmlns="http://www.w3.org/2000/svg"
   xmlns:sodipodi="http://sodipodi.sourceforge.net/DTD/sodipodi-0.dtd"
   xmlns:inkscape="http://www.inkscape.org/namespaces/inkscape"
   width="360"
   height="360"
   viewBox="0 0 95.249999 95.249999"
   version="1.1"
   id="svg5618"
   inkscape:version="0.92.5 (2060ec1f9f, 2020-04-08)"
   sodipodi:docname="profile_01.svg">
  <defs
     id="defs5612">
    <clipPath
       clipPathUnits="userSpaceOnUse"
       id="clipPath36">
      <path
         d="M 94.5884,383.5 H 150.365 V 282.128 H 94.5884 Z"
         id="path34"
         inkscape:connector-curvature="0" />
    </clipPath>
    <clipPath
       clipPathUnits="userSpaceOnUse"
       id="clipPath52">
      <path
         d="m 141.838,383.5 h 54.889 V 282.322 h -54.889 z"
         id="path50"
         inkscape:connector-curvature="0" />
    </clipPath>
    <clipPath
       clipPathUnits="userSpaceOnUse"
       id="clipPath76">
      <path
         d="m 127.64,391.246 h 37.449 V 335.25 H 127.64 Z"
         id="path74"
         inkscape:connector-curvature="0" />
    </clipPath>
    <clipPath
       clipPathUnits="userSpaceOnUse"
       id="clipPath104">
      <path
         d="m 143.308,444.5 h 36.833 v -33.333 h -36.833 z"
         id="path102"
         inkscape:connector-curvature="0" />
    </clipPath>
    <clipPath
       clipPathUnits="userSpaceOnUse"
       id="clipPath120">
      <path
         d="m 104.532,450.043 h 63.713 V 343.5 h -63.713 z"
         id="path118"
         inkscape:connector-curvature="0" />
    </clipPath>
  </defs>
  <sodipodi:namedview
     id="base"
     pagecolor="#ffffff"
     bordercolor="#666666"
     borderopacity="1.0"
     inkscape:pageopacity="0.0"
     inkscape:pageshadow="2"
     inkscape:zoom="1.4"
     inkscape:cx="205.27623"
     inkscape:cy="255.72016"
     inkscape:document-units="mm"
     inkscape:current-layer="g5042"
     showgrid="false"
     units="px"
     inkscape:window-width="1920"
     inkscape:window-height="1019"
     inkscape:window-x="0"
     inkscape:window-y="0"
     inkscape:window-maximized="1" />
  <metadata
     id="metadata5615">
    <rdf:RDF>
      <cc:Work
         rdf:about="">
        <dc:format>image/svg+xml</dc:format>
        <dc:type
           rdf:resource="http://purl.org/dc/dcmitype/StillImage" />
        <dc:title />
      </cc:Work>
    </rdf:RDF>
  </metadata>
  <g
     inkscape:label="Camada 1"
     inkscape:groupmode="layer"
     id="layer1"
     transform="translate(0,-201.75)">
    <g
       transform="matrix(0.45357143,0,0,-0.45357143,-18.747695,415.60893)"
       id="g5042">
      <g
         transform="translate(197.6147,395)"
         id="g26">
        <path
           inkscape:connector-curvature="0"
           id="path28"
           style="fill:#403365;fill-opacity:1;fill-rule:nonzero;stroke:none"
           d="m 0,0 c 0,52 -23.281,67 -52,67 -28.719,0 -52,-13.5 -52,-67 0,-10.789 1.991,-20.973 5.506,-30 -3.515,-9.027 -5.506,-19.211 -5.506,-30 0,-37.003 23.281,-67 52,-67 28.719,0 52,29.997 52,67 0,10.789 -1.991,20.973 -5.506,30 C -1.991,-20.973 0,-10.789 0,0" />
      </g>
      <g
         id="g30">
        <g
           id="g32" />
        <g
           id="g44">
          <g
             style="opacity:0.30000299"
             id="g42"
             clip-path="url(#clipPath36)">
            <g
               id="g40"
               transform="translate(94.5884,322.0942)">
              <path
                 inkscape:connector-curvature="0"
                 id="path38"
                 style="fill:#403365;fill-opacity:1;fill-rule:nonzero;stroke:none"
                 d="m 0,0 c 2.448,-16.156 9.401,-30.225 19.106,-39.966 l 36.67,9.122 -11.75,91.25 -37.5,1 C 6.526,61.406 36.26,24.23 0,0" />
            </g>
          </g>
        </g>
      </g>
      <g
         id="g46">
        <g
           id="g48" />
        <g
           id="g60">
          <g
             style="opacity:0.30000299"
             id="g58"
             clip-path="url(#clipPath52)">
            <g
               id="g56"
               transform="translate(153.5884,382.5)">
              <path
                 inkscape:connector-curvature="0"
                 id="path54"
                 style="fill:#403365;fill-opacity:1;fill-rule:nonzero;stroke:none"
                 d="m 0,0 -11.75,-91.25 35.888,-8.928 c 9.727,9.858 16.653,24.082 19,40.388 C 8.276,-35.551 37.5,1 37.5,1 Z" />
            </g>
          </g>
        </g>
      </g>
      <g
         transform="translate(146.3335,261.5)"
         id="g62">
        <path
           inkscape:connector-curvature="0"
           id="path64"
           style="fill:#ffb5ba;fill-opacity:1;fill-rule:nonzero;stroke:none"
           d="M 0,0 C 26.941,0 51.509,10.151 70.097,26.832 54.755,46.374 18.693,56.388 18.693,68.289 L 0,63.426 -18.693,68.289 c 0,-11.901 -36.062,-21.915 -51.404,-41.457 C -51.509,10.151 -26.941,0 0,0" />
      </g>
      <g
         transform="translate(165.0894,329.7891)"
         id="g66">
        <path
           inkscape:connector-curvature="0"
           id="path68"
           style="fill:#ffb5ba;fill-opacity:1;fill-rule:nonzero;stroke:none"
           d="m 0,0 c 0,-10.341 -8.383,-18.725 -18.725,-18.725 -10.341,0 -18.724,8.384 -18.724,18.725 v 42.731 c 0,10.342 8.383,18.726 18.724,18.726 C -8.383,61.457 0,53.073 0,42.731 Z" />
      </g>
      <g
         id="g70">
        <g
           id="g72" />
        <g
           id="g84">
          <g
             style="opacity:0.60000598"
             id="g82"
             clip-path="url(#clipPath76)">
            <g
               id="g80"
               transform="translate(146.3647,391.2456)">
              <path
                 inkscape:connector-curvature="0"
                 id="path78"
                 style="fill:#ffb5ba;fill-opacity:1;fill-rule:nonzero;stroke:none"
                 d="m 0,0 c -10.341,0 -18.725,-8.383 -18.725,-18.726 v -31.492 c 5.635,-3.689 11.992,-5.777 18.725,-5.777 6.733,0 13.09,2.088 18.725,5.777 v 31.492 C 18.725,-8.383 10.341,0 0,0" />
            </g>
          </g>
        </g>
      </g>
      <g
         transform="translate(112.2178,401.103)"
         id="g86">
        <path
           inkscape:connector-curvature="0"
           id="path88"
           style="fill:#ffb5ba;fill-opacity:1;fill-rule:nonzero;stroke:none"
           d="m 0,0 c 6.964,-6.964 8.758,-16.462 4.007,-21.213 -4.751,-4.751 -14.249,-2.957 -21.213,4.007 -6.964,6.964 -8.758,16.462 -4.007,21.213 C -16.462,8.758 -6.964,6.964 0,0" />
      </g>
      <g
         transform="translate(179.0117,401.103)"
         id="g90">
        <path
           inkscape:connector-curvature="0"
           id="path92"
           style="fill:#ffb5ba;fill-opacity:1;fill-rule:nonzero;stroke:none"
           d="m 0,0 c -6.964,-6.964 -8.758,-16.462 -4.007,-21.213 4.751,-4.751 14.249,-2.957 21.213,4.007 6.964,6.964 8.758,16.462 4.007,21.213 C 16.462,8.758 6.964,6.964 0,0" />
      </g>
      <g
         transform="translate(188.1982,398.1011)"
         id="g94">
        <path
           inkscape:connector-curvature="0"
           id="path96"
           style="fill:#ffb5ba;fill-opacity:1;fill-rule:nonzero;stroke:none"
           d="m 0,0 c 0,-30.155 -18.729,-54.601 -41.833,-54.601 -23.104,0 -41.834,24.446 -41.834,54.601 0,30.155 5.977,54.601 41.834,54.601 C -5.976,54.601 0,30.155 0,0" />
      </g>
      <g
         id="g98">
        <g
           id="g100" />
        <g
           id="g112">
          <g
             style="opacity:0.5"
             id="g110"
             clip-path="url(#clipPath104)">
            <g
               id="g108"
               transform="translate(143.3076,444.333)">
              <path
                 inkscape:connector-curvature="0"
                 id="path106"
                 style="fill:#ffb5ba;fill-opacity:1;fill-rule:nonzero;stroke:none"
                 d="m 0,0 c 0,0 17.333,-21.667 36.833,-33.167 -6.5,9.334 -18.666,20 -18.666,20 L 7.5,0.167 Z" />
            </g>
          </g>
        </g>
      </g>
      <g
         id="g114">
        <g
           id="g116" />
        <g
           id="g128">
          <g
             style="opacity:0.19999701"
             id="g126"
             clip-path="url(#clipPath120)">
            <g
               id="g124"
               transform="translate(156.8647,349.5005)">
              <path
                 inkscape:connector-curvature="0"
                 id="path122"
                 style="fill:#ffb5ba;fill-opacity:1;fill-rule:nonzero;stroke:none"
                 d="m 0,0 c -23.104,0 -41.833,24.445 -41.833,54.601 0,19.289 2.461,36.229 13.608,45.942 C -48.446,93.444 -52.333,72.878 -52.333,48.601 -52.333,18.445 -33.604,-6 -10.5,-6 -2.478,-6 5.014,-3.048 11.38,2.062 7.76,0.729 3.946,0 0,0" />
            </g>
          </g>
        </g>
      </g>
      <g
         transform="translate(155.5923,441.8623)"
         id="g130">
        <path
           inkscape:connector-curvature="0"
           id="path132"
           style="fill:#403365;fill-opacity:1;fill-rule:nonzero;stroke:none"
           d="m 0,0 c 8.15,-1.595 19.236,-6.304 22.136,-19.997 0.623,-2.942 1.232,-5.754 1.826,-8.415 C 19.997,-20.547 6.044,-9.763 0,0 m 17.404,7.079 c -20.3,10.658 -26.146,4.661 -26.528,4.232 -0.381,0.429 -6.228,6.426 -26.527,-4.232 -21.577,-11.328 -19.66,-51.108 -16.493,-60.275 1.975,-5.715 7.029,10.855 11.761,33.199 4.646,21.94 30.31,20.818 31.237,20.769 V 0.771 c 0,0 0.019,0 0.022,0 0.004,0 0.022,0 0.022,0 v 0.001 c 0.134,0.007 0.791,0.035 1.81,0.015 8.111,-11.13 24.689,-20.004 32.142,-33.103 3.518,-15.185 6.429,-24.002 8.339,-19.546 2.5,5.833 5.792,47.613 -15.785,58.941" />
      </g>
      <g
         transform="translate(200.1753,302.5781)"
         id="g134">
        <path
           inkscape:connector-curvature="0"
           id="path136"
           style="fill:#f66b98;fill-opacity:1;fill-rule:nonzero;stroke:none"
           d="m 0,0 c -10.411,-9.34 -31.273,-24.828 -55.201,-24.828 -23.731,0 -43.132,15.237 -52.817,24.599 -6.075,-4.125 -11.761,-8.719 -15.921,-14.018 18.588,-16.68 43.156,-26.831 70.097,-26.831 26.942,0 51.509,10.151 70.097,26.831 C 12.019,-8.851 6.201,-4.184 0,0" />
      </g>
      <g
         transform="translate(105.5991,383.875)"
         id="g138">
        <path
           inkscape:connector-curvature="0"
           id="path140"
           style="fill:#ffffff;fill-opacity:1;fill-rule:nonzero;stroke:none"
           d="m 0,0 c 0,-1.45 -1.175,-2.625 -2.625,-2.625 -1.45,0 -2.625,1.175 -2.625,2.625 0,1.45 1.175,2.625 2.625,2.625 C -1.175,2.625 0,1.45 0,0" />
      </g>
      <g
         transform="translate(192.5991,383.875)"
         id="g142">
        <path
           inkscape:connector-curvature="0"
           id="path144"
           style="fill:#ffffff;fill-opacity:1;fill-rule:nonzero;stroke:none"
           d="m 0,0 c 0,-1.45 -1.175,-2.625 -2.625,-2.625 -1.45,0 -2.625,1.175 -2.625,2.625 0,1.45 1.175,2.625 2.625,2.625 C -1.175,2.625 0,1.45 0,0" />
      </g>
    </g>
  </g>
</svg>
