<?xml version="1.0" encoding="UTF-8" standalone="no"?>
<!-- Created with Inkscape (http://www.inkscape.org/) -->

<svg
   xmlns:dc="http://purl.org/dc/elements/1.1/"
   xmlns:cc="http://creativecommons.org/ns#"
   xmlns:rdf="http://www.w3.org/1999/02/22-rdf-syntax-ns#"
   xmlns:svg="http://www.w3.org/2000/svg"
   xmlns="http://www.w3.org/2000/svg"
   xmlns:sodipodi="http://sodipodi.sourceforge.net/DTD/sodipodi-0.dtd"
   xmlns:inkscape="http://www.inkscape.org/namespaces/inkscape"
   width="360"
   height="360"
   viewBox="0 0 95.249999 95.249999"
   version="1.1"
   id="svg5618"
   inkscape:version="0.92.5 (2060ec1f9f, 2020-04-08)"
   sodipodi:docname="profile_02.svg">
  <defs
     id="defs5612">
    <clipPath
       clipPathUnits="userSpaceOnUse"
       id="clipPath36">
      <path
         d="M 94.5884,383.5 H 150.365 V 282.128 H 94.5884 Z"
         id="path34"
         inkscape:connector-curvature="0" />
    </clipPath>
    <clipPath
       clipPathUnits="userSpaceOnUse"
       id="clipPath52">
      <path
         d="m 141.838,383.5 h 54.889 V 282.322 h -54.889 z"
         id="path50"
         inkscape:connector-curvature="0" />
    </clipPath>
    <clipPath
       clipPathUnits="userSpaceOnUse"
       id="clipPath76">
      <path
         d="m 127.64,391.246 h 37.449 V 335.25 H 127.64 Z"
         id="path74"
         inkscape:connector-curvature="0" />
    </clipPath>
    <clipPath
       clipPathUnits="userSpaceOnUse"
       id="clipPath104">
      <path
         d="m 143.308,444.5 h 36.833 v -33.333 h -36.833 z"
         id="path102"
         inkscape:connector-curvature="0" />
    </clipPath>
    <clipPath
       clipPathUnits="userSpaceOnUse"
       id="clipPath120">
      <path
         d="m 104.532,450.043 h 63.713 V 343.5 h -63.713 z"
         id="path118"
         inkscape:connector-curvature="0" />
    </clipPath>
    <clipPath
       clipPathUnits="userSpaceOnUse"
       id="clipPath164">
      <path
         d="M 284.341,369.052 H 463.045 V 263.864 H 284.341 Z"
         id="path162"
         inkscape:connector-curvature="0" />
    </clipPath>
    <clipPath
       clipPathUnits="userSpaceOnUse"
       id="clipPath184">
      <path
         d="m 356.306,391.246 h 37.45 V 335.25 h -37.45 z"
         id="path182"
         inkscape:connector-curvature="0" />
    </clipPath>
    <clipPath
       clipPathUnits="userSpaceOnUse"
       id="clipPath204">
      <path
         d="m 333.198,439.75 h 54.39 V 343.5 h -54.39 z"
         id="path202"
         inkscape:connector-curvature="0" />
    </clipPath>
    <clipPath
       clipPathUnits="userSpaceOnUse"
       id="clipPath244">
      <path
         d="m 350.151,323.494 h 14.031 v -3.756 h -14.031 z"
         id="path242"
         inkscape:connector-curvature="0" />
    </clipPath>
    <clipPath
       clipPathUnits="userSpaceOnUse"
       id="clipPath260">
      <path
         d="m 386.475,323.482 h 14.185 v -3.744 h -14.185 z"
         id="path258"
         inkscape:connector-curvature="0" />
    </clipPath>
  </defs>
  <sodipodi:namedview
     id="base"
     pagecolor="#ffffff"
     bordercolor="#666666"
     borderopacity="1.0"
     inkscape:pageopacity="0.0"
     inkscape:pageshadow="2"
     inkscape:zoom="0.49497475"
     inkscape:cx="608.5266"
     inkscape:cy="606.78201"
     inkscape:document-units="mm"
     inkscape:current-layer="g5096"
     showgrid="false"
     units="px"
     inkscape:window-width="1920"
     inkscape:window-height="1019"
     inkscape:window-x="0"
     inkscape:window-y="0"
     inkscape:window-maximized="1" />
  <metadata
     id="metadata5615">
    <rdf:RDF>
      <cc:Work
         rdf:about="">
        <dc:format>image/svg+xml</dc:format>
        <dc:type
           rdf:resource="http://purl.org/dc/dcmitype/StillImage" />
        <dc:title />
      </cc:Work>
    </rdf:RDF>
  </metadata>
  <g
     inkscape:label="Camada 1"
     inkscape:groupmode="layer"
     id="layer1"
     transform="translate(0,-201.75)">
    <g
       transform="matrix(0.45357143,0,0,-0.45357143,-122.46429,415.60893)"
       id="g5096">
      <g
         transform="translate(321.3335,378.6665)"
         id="g150">
        <path
           inkscape:connector-curvature="0"
           id="path152"
           style="fill:#f66b98;fill-opacity:1;fill-rule:nonzero;stroke:none"
           d="M 0,0 C 3.988,-18.695 -27.623,-38.695 -36.993,-65.158 -22.829,-89.338 0.73,-107.342 28.675,-114.166 30.807,-112.922 32,-112 32,-112 l 33.667,89.333 z" />
      </g>
      <g
         transform="translate(463.0449,309.2778)"
         id="g154">
        <path
           inkscape:connector-curvature="0"
           id="path156"
           style="fill:#f66b98;fill-opacity:1;fill-rule:nonzero;stroke:none"
           d="m 0,0 c -7.231,28.584 -42.473,49.71 -38.274,69.389 l -65.667,-22.667 33.667,-89.333 c 0,0 1.615,-1.249 4.45,-2.803 C -38.34,-39.491 -14.857,-22.813 0,0" />
      </g>
      <g
         id="g158">
        <g
           id="g160" />
        <g
           id="g172">
          <g
             style="opacity:0.39999402"
             id="g170"
             clip-path="url(#clipPath164)">
            <g
               id="g168"
               transform="translate(373.0518,318.9888)">
              <path
                 inkscape:connector-curvature="0"
                 id="path166"
                 style="fill:#f66b98;fill-opacity:1;fill-rule:nonzero;stroke:none"
                 d="m 0,0 19.719,-52.322 c 0,0 1.615,-1.249 4.45,-2.803 27.484,5.923 50.967,22.601 65.824,45.414 C 87.648,-0.442 82.357,8.042 76.421,15.948 36.115,6.094 25.158,37.268 22.441,49.572 L 0,41.826 -23.864,50.063 C -25.742,21.928 -46.174,1.517 -77.872,13.981 -82.312,7.871 -86.269,1.417 -88.711,-5.48 c 14.164,-24.18 37.723,-42.185 65.668,-49.008 2.132,1.244 3.325,2.166 3.325,2.166 z" />
            </g>
          </g>
        </g>
      </g>
      <g
         transform="translate(393.7559,372.52)"
         id="g174">
        <path
           inkscape:connector-curvature="0"
           id="path176"
           style="fill:#ffd9cf;fill-opacity:1;fill-rule:nonzero;stroke:none"
           d="M 0,0 C 0,10.342 -8.383,18.726 -18.725,18.726 -29.066,18.726 -37.45,10.342 -37.45,0 v -42.731 c 0,-4.359 1.503,-8.36 4.001,-11.542 v -44.122 h 29.25 v 43.856 C -1.576,-51.317 0,-47.209 0,-42.731 Z" />
      </g>
      <g
         id="g178">
        <g
           id="g180" />
        <g
           id="g192">
          <g
             style="opacity:0.60000598"
             id="g190"
             clip-path="url(#clipPath184)">
            <g
               id="g188"
               transform="translate(375.0308,391.2456)">
              <path
                 inkscape:connector-curvature="0"
                 id="path186"
                 style="fill:#ffd9cf;fill-opacity:1;fill-rule:nonzero;stroke:none"
                 d="m 0,0 c -10.341,0 -18.725,-8.383 -18.725,-18.726 v -31.492 c 5.635,-3.689 11.992,-5.777 18.725,-5.777 6.733,0 13.09,2.088 18.725,5.777 v 31.492 C 18.725,-8.383 10.342,0 0,0" />
            </g>
          </g>
        </g>
      </g>
      <g
         transform="translate(416.8652,398.1011)"
         id="g194">
        <path
           inkscape:connector-curvature="0"
           id="path196"
           style="fill:#ffd9cf;fill-opacity:1;fill-rule:nonzero;stroke:none"
           d="m 0,0 c 0,-30.155 -18.73,-54.601 -41.834,-54.601 -23.104,0 -41.833,24.446 -41.833,54.601 0,30.155 5.976,54.601 41.833,54.601 C -5.977,54.601 0,30.155 0,0" />
      </g>
      <g
         id="g198">
        <g
           id="g200" />
        <g
           id="g212">
          <g
             style="opacity:0.19999701"
             id="g210"
             clip-path="url(#clipPath204)">
            <g
               id="g208"
               transform="translate(387.5879,346.0068)">
              <path
                 inkscape:connector-curvature="0"
                 id="path206"
                 style="fill:#ffd9cf;fill-opacity:1;fill-rule:nonzero;stroke:none"
                 d="m 0,0 c -42.531,-3.757 -46.781,41.743 -22.281,51.993 23.863,9.983 20.25,35.25 20.25,35.25 l -34,6.5 -17.498,-24.836 c -0.629,-5.298 -0.861,-10.945 -0.861,-16.813 0,-30.155 18.729,-54.6 41.833,-54.6 4.375,0 8.592,0.88 12.557,2.506" />
            </g>
          </g>
        </g>
      </g>
      <g
         transform="translate(426.8066,416.332)"
         id="g214">
        <path
           inkscape:connector-curvature="0"
           id="path216"
           style="fill:#f66b98;fill-opacity:1;fill-rule:nonzero;stroke:none"
           d="m 0,0 c -5.5,42.668 -41,38.667 -41,38.667 0,0 -36.667,13.666 -60.333,-19.334 -21.253,-29.634 7,-88.333 7,-88.333 L -80,-58.667 c 0,0 -16.949,38.328 14.333,44.667 16.77,3.399 22.694,17.966 24.559,30.921 5.731,-5.75 17.468,-18.852 21.442,-33.254 5.332,-19.334 -4.084,-42.749 -4.084,-42.749 L -11.666,-69 c 0,0 16.377,32.453 11.666,69" />
      </g>
      <g
         transform="translate(423.8164,404.229)"
         id="g218">
        <path
           inkscape:connector-curvature="0"
           id="path220"
           style="fill:#ffd9cf;fill-opacity:1;fill-rule:nonzero;stroke:none"
           d="m 0,0 c -2.117,3.042 -6.012,4.369 -10.43,4.011 3.291,-5.497 4.649,-13.119 3.215,-21.117 -0.199,-1.108 -0.451,-2.187 -0.742,-3.242 0.09,0.06 0.182,0.112 0.27,0.174 C 0.396,-14.547 3.838,-5.515 0,0" />
      </g>
      <g
         transform="translate(327.4546,404.229)"
         id="g222">
        <path
           inkscape:connector-curvature="0"
           id="path224"
           style="fill:#ffd9cf;fill-opacity:1;fill-rule:nonzero;stroke:none"
           d="M 0,0 C 2.118,3.042 6.012,4.369 10.431,4.011 7.139,-1.486 5.782,-9.108 7.216,-17.106 c 0.198,-1.108 0.45,-2.187 0.741,-3.242 -0.09,0.06 -0.182,0.112 -0.27,0.174 C -0.396,-14.547 -3.838,-5.515 0,0" />
      </g>
      <g
         transform="translate(421.582,391.9995)"
         id="g226">
        <path
           inkscape:connector-curvature="0"
           id="path228"
           style="fill:#ffffff;fill-opacity:1;fill-rule:nonzero;stroke:none"
           d="M 0,0 C 0.742,2.263 -0.49,4.699 -2.754,5.442 -5.016,6.185 -7.453,4.953 -8.195,2.69 -8.891,0.569 -7.84,-1.686 -5.846,-2.574 l -2.332,-7.109 c -0.226,-0.689 0.149,-1.43 0.838,-1.656 0.688,-0.226 1.43,0.149 1.656,0.838 l 2.512,7.651 C -1.734,-2.532 -0.494,-1.501 0,0" />
      </g>
      <g
         transform="translate(328.7632,391.9995)"
         id="g230">
        <path
           inkscape:connector-curvature="0"
           id="path232"
           style="fill:#ffffff;fill-opacity:1;fill-rule:nonzero;stroke:none"
           d="M 0,0 C -0.743,2.263 0.489,4.699 2.753,5.442 5.016,6.185 7.452,4.953 8.195,2.69 8.891,0.569 7.84,-1.686 5.845,-2.574 l 2.333,-7.109 c 0.225,-0.689 -0.15,-1.43 -0.838,-1.656 -0.689,-0.226 -1.431,0.149 -1.656,0.838 L 3.172,-2.85 C 1.734,-2.532 0.493,-1.501 0,0" />
      </g>
      <g
         transform="translate(396.8066,323.5601)"
         id="g234">
        <path
           inkscape:connector-curvature="0"
           id="path236"
           style="fill:#0369a6;fill-opacity:1;fill-rule:nonzero;stroke:none"
           d="m 0,0 v 10.773 h -13.025 l -7.6,-50.083 -9.343,50.083 H -43 V 0 c -8.421,-9.752 -35.995,-18.786 -48.904,-35.229 18.588,-16.68 43.155,-26.831 70.097,-26.831 26.942,0 51.508,10.151 70.098,26.831 C 35.674,-19.159 9.064,-9.532 0,0" />
      </g>
      <g
         id="g238">
        <g
           id="g240" />
        <g
           id="g252">
          <g
             style="opacity:0.39999402"
             id="g250"
             clip-path="url(#clipPath244)">
            <g
               id="g248"
               transform="translate(364.1821,320.208)">
              <path
                 inkscape:connector-curvature="0"
                 id="path246"
                 style="fill:#0369a6;fill-opacity:1;fill-rule:nonzero;stroke:none"
                 d="M 0,0 C -3.136,0.098 -8.332,2.325 -10.437,3.286 -11.403,2.178 -12.622,1.079 -14.031,-0.022 -11.634,-0.315 -5.637,-0.875 0,0" />
            </g>
          </g>
        </g>
      </g>
      <g
         id="g254">
        <g
           id="g256" />
        <g
           id="g268">
          <g
             style="opacity:0.39999402"
             id="g266"
             clip-path="url(#clipPath260)">
            <g
               id="g264"
               transform="translate(400.6602,320.2051)">
              <path
                 inkscape:connector-curvature="0"
                 id="path262"
                 style="fill:#0369a6;fill-opacity:1;fill-rule:nonzero;stroke:none"
                 d="M 0,0 C -1.453,1.1 -2.73,2.189 -3.775,3.277 -5.895,2.311 -11.063,0.101 -14.186,0.003 -8.426,-0.891 -2.287,-0.287 0,0" />
            </g>
          </g>
        </g>
      </g>
    </g>
  </g>
</svg>
